M48
;DRILL file {KiCad 4.0.4-stable} date Thursday, 03 '03e' November '03e' 2016, 09:15:22
;FORMAT={-:-/ absolute / metric / decimal}
FMAT,2
METRIC,TZ
T1C0.400
T2C0.450
T3C0.500
T4C1.001
T5C1.016
T6C3.000
%
G90
G05
M71
T1
X106.65Y-127.675
X109.75Y-131.05
X112.175Y-129.25
X114.075Y-140.85
X115.45Y-122.025
X115.55Y-129.875
X116.5Y-133.55
X116.675Y-132.225
X116.75Y-120.69
X116.78Y-119.38
X116.95Y-137.4
X116.975Y-126.05
X117.15Y-127.75
X117.8Y-128.45
X118.47Y-118.43
X118.75Y-142.325
X118.8Y-130.775
X118.875Y-135.825
X119.425Y-114.05
X119.675Y-136.05
X119.775Y-117.65
X119.85Y-143.05
X120.Y-123.925
X120.45Y-119.5
X120.46Y-115.85
X120.6Y-117.625
X120.84Y-139.2
X121.125Y-135.575
X121.2Y-126.625
X121.875Y-121.525
X122.04Y-138.4
X122.5Y-116.1
X122.55Y-132.15
X122.6Y-133.125
X122.6Y-142.3
X123.Y-136.
X123.65Y-138.42
X123.825Y-130.9
X124.3Y-133.175
X124.875Y-131.325
X125.Y-122.275
X125.025Y-143.7
X125.425Y-136.
X125.55Y-128.175
X125.55Y-129.225
X125.82Y-132.1
X126.225Y-127.5
X126.26Y-136.03
X126.55Y-140.725
X126.65Y-132.71
X126.85Y-118.425
X126.925Y-139.125
X127.55Y-143.725
X127.925Y-128.425
X127.94Y-115.52
X128.1Y-124.675
X128.125Y-139.975
X128.15Y-122.5
X129.075Y-139.925
X129.125Y-122.5
X129.175Y-135.625
X129.25Y-115.925
X131.45Y-129.175
X131.725Y-130.85
X132.9Y-120.525
X133.2Y-124.125
X133.25Y-128.325
X133.25Y-134.775
X133.25Y-136.325
X134.925Y-136.425
X135.125Y-129.225
X137.2Y-140.
X138.7Y-120.7
T4
X104.55Y-129.225
X105.025Y-125.65
X105.025Y-132.825
X106.375Y-122.3
X106.375Y-136.15
X108.375Y-119.45
X108.375Y-139.
X110.875Y-117.1
X110.875Y-141.375
X113.675Y-143.175
X113.725Y-115.225
X116.525Y-113.925
X134.075Y-114.15
X136.875Y-115.525
X136.9Y-142.95
X139.525Y-117.35
X139.55Y-141.15
X141.925Y-138.775
X141.95Y-119.675
X143.85Y-122.5
X143.875Y-135.95
X145.125Y-125.75
X145.125Y-132.7
X145.575Y-129.25
T5
X118.65Y-144.9
X121.19Y-144.9
X123.73Y-144.9
X126.27Y-144.9
X128.81Y-144.9
X131.35Y-144.9
T6
X116.75Y-117.275
X133.8Y-117.275
T2
X121.825Y-111.775G85X121.825Y-112.425
G05
T3
X128.225Y-111.8G85X128.225Y-112.4
G05
T0
M30
