G04 #@! TF.FileFunction,Legend,Bot*
%FSLAX46Y46*%
G04 Gerber Fmt 4.6, Leading zero omitted, Abs format (unit mm)*
G04 Created by KiCad (PCBNEW 4.0.4-stable) date Thursday, 03 '03e' November '03e' 2016, 09:15:18*
%MOMM*%
%LPD*%
G01*
G04 APERTURE LIST*
%ADD10C,0.100000*%
%ADD11C,0.300000*%
%ADD12C,0.275000*%
%ADD13C,0.127000*%
%ADD14C,0.150000*%
G04 APERTURE END LIST*
D10*
D11*
X118649428Y-119971429D02*
X118577999Y-119900000D01*
X118435142Y-119828571D01*
X118077999Y-119828571D01*
X117935142Y-119900000D01*
X117863713Y-119971429D01*
X117792285Y-120114286D01*
X117792285Y-120257143D01*
X117863713Y-120471429D01*
X118720856Y-121328571D01*
X117792285Y-121328571D01*
X116863714Y-119828571D02*
X116720857Y-119828571D01*
X116578000Y-119900000D01*
X116506571Y-119971429D01*
X116435142Y-120114286D01*
X116363714Y-120400000D01*
X116363714Y-120757143D01*
X116435142Y-121042857D01*
X116506571Y-121185714D01*
X116578000Y-121257143D01*
X116720857Y-121328571D01*
X116863714Y-121328571D01*
X117006571Y-121257143D01*
X117078000Y-121185714D01*
X117149428Y-121042857D01*
X117220857Y-120757143D01*
X117220857Y-120400000D01*
X117149428Y-120114286D01*
X117078000Y-119971429D01*
X117006571Y-119900000D01*
X116863714Y-119828571D01*
X114935143Y-121328571D02*
X115792286Y-121328571D01*
X115363714Y-121328571D02*
X115363714Y-119828571D01*
X115506571Y-120042857D01*
X115649429Y-120185714D01*
X115792286Y-120257143D01*
X113649429Y-119828571D02*
X113935143Y-119828571D01*
X114078000Y-119900000D01*
X114149429Y-119971429D01*
X114292286Y-120185714D01*
X114363715Y-120471429D01*
X114363715Y-121042857D01*
X114292286Y-121185714D01*
X114220858Y-121257143D01*
X114078000Y-121328571D01*
X113792286Y-121328571D01*
X113649429Y-121257143D01*
X113578000Y-121185714D01*
X113506572Y-121042857D01*
X113506572Y-120685714D01*
X113578000Y-120542857D01*
X113649429Y-120471429D01*
X113792286Y-120400000D01*
X114078000Y-120400000D01*
X114220858Y-120471429D01*
X114292286Y-120542857D01*
X114363715Y-120685714D01*
D12*
X139218095Y-137597619D02*
X139218095Y-136497619D01*
X138589524Y-137597619D01*
X138589524Y-136497619D01*
X137594286Y-137597619D02*
X137594286Y-137021429D01*
X137646667Y-136916667D01*
X137751429Y-136864286D01*
X137960952Y-136864286D01*
X138065714Y-136916667D01*
X137594286Y-137545238D02*
X137699048Y-137597619D01*
X137960952Y-137597619D01*
X138065714Y-137545238D01*
X138118095Y-137440476D01*
X138118095Y-137335714D01*
X138065714Y-137230952D01*
X137960952Y-137178571D01*
X137699048Y-137178571D01*
X137594286Y-137126190D01*
X137175238Y-136864286D02*
X136913333Y-137597619D01*
X136651429Y-136864286D01*
X135813334Y-137545238D02*
X135918096Y-137597619D01*
X136127619Y-137597619D01*
X136232381Y-137545238D01*
X136284762Y-137440476D01*
X136284762Y-137021429D01*
X136232381Y-136916667D01*
X136127619Y-136864286D01*
X135918096Y-136864286D01*
X135813334Y-136916667D01*
X135760953Y-137021429D01*
X135760953Y-137126190D01*
X136284762Y-137230952D01*
X135132381Y-137597619D02*
X135237143Y-137545238D01*
X135289524Y-137440476D01*
X135289524Y-136497619D01*
X134713334Y-137597619D02*
X134713334Y-136864286D01*
X134713334Y-136497619D02*
X134765715Y-136550000D01*
X134713334Y-136602381D01*
X134660953Y-136550000D01*
X134713334Y-136497619D01*
X134713334Y-136602381D01*
X134189524Y-136864286D02*
X134189524Y-137597619D01*
X134189524Y-136969048D02*
X134137143Y-136916667D01*
X134032381Y-136864286D01*
X133875239Y-136864286D01*
X133770477Y-136916667D01*
X133718096Y-137021429D01*
X133718096Y-137597619D01*
X133037143Y-137597619D02*
X133141905Y-137545238D01*
X133194286Y-137492857D01*
X133246667Y-137388095D01*
X133246667Y-137073810D01*
X133194286Y-136969048D01*
X133141905Y-136916667D01*
X133037143Y-136864286D01*
X132880001Y-136864286D01*
X132775239Y-136916667D01*
X132722858Y-136969048D01*
X132670477Y-137073810D01*
X132670477Y-137388095D01*
X132722858Y-137492857D01*
X132775239Y-137545238D01*
X132880001Y-137597619D01*
X133037143Y-137597619D01*
X131465715Y-136864286D02*
X131203810Y-137597619D01*
X130941906Y-136864286D01*
X130575239Y-136602381D02*
X130522858Y-136550000D01*
X130418096Y-136497619D01*
X130156192Y-136497619D01*
X130051430Y-136550000D01*
X129999049Y-136602381D01*
X129946668Y-136707143D01*
X129946668Y-136811905D01*
X129999049Y-136969048D01*
X130627620Y-137597619D01*
X129946668Y-137597619D01*
X128637144Y-137178571D02*
X127799049Y-137178571D01*
X126437144Y-137597619D02*
X126437144Y-136497619D01*
X126437144Y-137021429D02*
X125808573Y-137021429D01*
X125808573Y-137597619D02*
X125808573Y-136497619D01*
X124813335Y-137597619D02*
X124813335Y-137021429D01*
X124865716Y-136916667D01*
X124970478Y-136864286D01*
X125180001Y-136864286D01*
X125284763Y-136916667D01*
X124813335Y-137545238D02*
X124918097Y-137597619D01*
X125180001Y-137597619D01*
X125284763Y-137545238D01*
X125337144Y-137440476D01*
X125337144Y-137335714D01*
X125284763Y-137230952D01*
X125180001Y-137178571D01*
X124918097Y-137178571D01*
X124813335Y-137126190D01*
X123818097Y-137545238D02*
X123922859Y-137597619D01*
X124132382Y-137597619D01*
X124237144Y-137545238D01*
X124289525Y-137492857D01*
X124341906Y-137388095D01*
X124341906Y-137073810D01*
X124289525Y-136969048D01*
X124237144Y-136916667D01*
X124132382Y-136864286D01*
X123922859Y-136864286D01*
X123818097Y-136916667D01*
X123346668Y-137597619D02*
X123346668Y-136497619D01*
X123241906Y-137178571D02*
X122927621Y-137597619D01*
X122927621Y-136864286D02*
X123346668Y-137283333D01*
X122037145Y-137545238D02*
X122141907Y-137597619D01*
X122351430Y-137597619D01*
X122456192Y-137545238D01*
X122508573Y-137440476D01*
X122508573Y-137021429D01*
X122456192Y-136916667D01*
X122351430Y-136864286D01*
X122141907Y-136864286D01*
X122037145Y-136916667D01*
X121984764Y-137021429D01*
X121984764Y-137126190D01*
X122508573Y-137230952D01*
X121513335Y-137597619D02*
X121513335Y-136864286D01*
X121513335Y-137073810D02*
X121460954Y-136969048D01*
X121408573Y-136916667D01*
X121303811Y-136864286D01*
X121199050Y-136864286D01*
X120884764Y-137545238D02*
X120727621Y-137597619D01*
X120465717Y-137597619D01*
X120360955Y-137545238D01*
X120308574Y-137492857D01*
X120256193Y-137388095D01*
X120256193Y-137283333D01*
X120308574Y-137178571D01*
X120360955Y-137126190D01*
X120465717Y-137073810D01*
X120675240Y-137021429D01*
X120780002Y-136969048D01*
X120832383Y-136916667D01*
X120884764Y-136811905D01*
X120884764Y-136707143D01*
X120832383Y-136602381D01*
X120780002Y-136550000D01*
X120675240Y-136497619D01*
X120413336Y-136497619D01*
X120256193Y-136550000D01*
X119784764Y-136864286D02*
X119784764Y-137964286D01*
X119784764Y-136916667D02*
X119680002Y-136864286D01*
X119470479Y-136864286D01*
X119365717Y-136916667D01*
X119313336Y-136969048D01*
X119260955Y-137073810D01*
X119260955Y-137388095D01*
X119313336Y-137492857D01*
X119365717Y-137545238D01*
X119470479Y-137597619D01*
X119680002Y-137597619D01*
X119784764Y-137545238D01*
X118318098Y-137597619D02*
X118318098Y-137021429D01*
X118370479Y-136916667D01*
X118475241Y-136864286D01*
X118684764Y-136864286D01*
X118789526Y-136916667D01*
X118318098Y-137545238D02*
X118422860Y-137597619D01*
X118684764Y-137597619D01*
X118789526Y-137545238D01*
X118841907Y-137440476D01*
X118841907Y-137335714D01*
X118789526Y-137230952D01*
X118684764Y-137178571D01*
X118422860Y-137178571D01*
X118318098Y-137126190D01*
X117322860Y-137545238D02*
X117427622Y-137597619D01*
X117637145Y-137597619D01*
X117741907Y-137545238D01*
X117794288Y-137492857D01*
X117846669Y-137388095D01*
X117846669Y-137073810D01*
X117794288Y-136969048D01*
X117741907Y-136916667D01*
X117637145Y-136864286D01*
X117427622Y-136864286D01*
X117322860Y-136916667D01*
X116432384Y-137545238D02*
X116537146Y-137597619D01*
X116746669Y-137597619D01*
X116851431Y-137545238D01*
X116903812Y-137440476D01*
X116903812Y-137021429D01*
X116851431Y-136916667D01*
X116746669Y-136864286D01*
X116537146Y-136864286D01*
X116432384Y-136916667D01*
X116380003Y-137021429D01*
X116380003Y-137126190D01*
X116903812Y-137230952D01*
X115227622Y-136497619D02*
X114860955Y-137597619D01*
X114494289Y-136497619D01*
X113603813Y-137597619D02*
X114127622Y-137597619D01*
X114127622Y-136497619D01*
X112608575Y-137492857D02*
X112660956Y-137545238D01*
X112818099Y-137597619D01*
X112922861Y-137597619D01*
X113080003Y-137545238D01*
X113184765Y-137440476D01*
X113237146Y-137335714D01*
X113289527Y-137126190D01*
X113289527Y-136969048D01*
X113237146Y-136759524D01*
X113184765Y-136654762D01*
X113080003Y-136550000D01*
X112922861Y-136497619D01*
X112818099Y-136497619D01*
X112660956Y-136550000D01*
X112608575Y-136602381D01*
D13*
X122925000Y-138375000D02*
X122925000Y-138775000D01*
X122925000Y-141175000D02*
X122925000Y-141575000D01*
X122925000Y-141575000D02*
X117925000Y-141575000D01*
X117925000Y-141575000D02*
X117925000Y-141175000D01*
X117925000Y-138775000D02*
X117925000Y-138375000D01*
X117925000Y-138375000D02*
X122925000Y-138375000D01*
X120679000Y-138959000D02*
X120679000Y-140991000D01*
X120679000Y-140991000D02*
X120171000Y-140991000D01*
X120171000Y-140991000D02*
X120171000Y-138959000D01*
X120171000Y-138959000D02*
X120679000Y-138959000D01*
X121060000Y-138705000D02*
X121060000Y-139975000D01*
X121060000Y-139975000D02*
X121060000Y-141245000D01*
X119790000Y-138705000D02*
X119790000Y-139975000D01*
X119790000Y-139975000D02*
X119790000Y-141245000D01*
X121060000Y-139975000D02*
X121568000Y-139975000D01*
X119790000Y-139975000D02*
X119282000Y-139975000D01*
D14*
X128625000Y-134075000D02*
X128300000Y-134075000D01*
X128625000Y-126825000D02*
X128300000Y-126825000D01*
X121375000Y-126825000D02*
X121700000Y-126825000D01*
X121375000Y-134075000D02*
X121700000Y-134075000D01*
X128625000Y-134075000D02*
X128625000Y-133750000D01*
X121375000Y-134075000D02*
X121375000Y-133750000D01*
X121375000Y-126825000D02*
X121375000Y-127150000D01*
X128625000Y-126825000D02*
X128625000Y-127150000D01*
X128300000Y-134075000D02*
X128300000Y-135500000D01*
X136900000Y-127100000D02*
X138100000Y-127100000D01*
X138100000Y-125350000D02*
X136900000Y-125350000D01*
X137375000Y-130100000D02*
X138575000Y-130100000D01*
X138575000Y-128350000D02*
X137375000Y-128350000D01*
X112800000Y-128350000D02*
X111600000Y-128350000D01*
X111600000Y-130100000D02*
X112800000Y-130100000D01*
X113250000Y-131475000D02*
X112050000Y-131475000D01*
X112050000Y-133225000D02*
X113250000Y-133225000D01*
X114600000Y-134375000D02*
X113400000Y-134375000D01*
X113400000Y-136125000D02*
X114600000Y-136125000D01*
X114675000Y-122350000D02*
X113475000Y-122350000D01*
X113475000Y-124100000D02*
X114675000Y-124100000D01*
X113300000Y-125200000D02*
X112100000Y-125200000D01*
X112100000Y-126950000D02*
X113300000Y-126950000D01*
X135650000Y-135950000D02*
X136850000Y-135950000D01*
X136850000Y-134200000D02*
X135650000Y-134200000D01*
X135625000Y-124275000D02*
X136825000Y-124275000D01*
X136825000Y-122525000D02*
X135625000Y-122525000D01*
X136900000Y-133150000D02*
X138100000Y-133150000D01*
X138100000Y-131400000D02*
X136900000Y-131400000D01*
X122725000Y-118975000D02*
X122725000Y-119975000D01*
X121025000Y-119975000D02*
X121025000Y-118975000D01*
X127200000Y-119975000D02*
X127200000Y-118975000D01*
X128900000Y-118975000D02*
X128900000Y-119975000D01*
X125450000Y-124675000D02*
X124450000Y-124675000D01*
X124450000Y-122975000D02*
X125450000Y-122975000D01*
X128450000Y-141375000D02*
X129450000Y-141375000D01*
X129450000Y-143075000D02*
X128450000Y-143075000D01*
X125825000Y-139550000D02*
X125825000Y-140550000D01*
X124125000Y-140550000D02*
X124125000Y-139550000D01*
X116700000Y-139550000D02*
X116700000Y-140550000D01*
X115000000Y-140550000D02*
X115000000Y-139550000D01*
X118625000Y-124875000D02*
X119625000Y-124875000D01*
X119625000Y-126575000D02*
X118625000Y-126575000D01*
X126750000Y-119750000D02*
G75*
G03X126750000Y-119750000I-100000J0D01*
G01*
X126400000Y-119200000D02*
X126400000Y-119700000D01*
X123500000Y-119200000D02*
X126400000Y-119200000D01*
X123500000Y-119700000D02*
X123500000Y-119200000D01*
X126400000Y-119700000D02*
X123500000Y-119700000D01*
X133318420Y-139975000D02*
G75*
G03X133318420Y-139975000I-718420J0D01*
G01*
X134100000Y-141225000D02*
X134100000Y-138725000D01*
X134100000Y-138725000D02*
X131100000Y-138725000D01*
X131100000Y-141225000D02*
X134100000Y-141225000D01*
X131100000Y-141225000D02*
X131100000Y-138725000D01*
X133750000Y-141350000D02*
X132550000Y-141350000D01*
X132550000Y-143100000D02*
X133750000Y-143100000D01*
X121258572Y-141942381D02*
X120658572Y-142942381D01*
X120658572Y-141942381D02*
X121258572Y-142942381D01*
X120144286Y-141942381D02*
X120058571Y-141942381D01*
X119972857Y-141990000D01*
X119930000Y-142037619D01*
X119887143Y-142132857D01*
X119844286Y-142323333D01*
X119844286Y-142561429D01*
X119887143Y-142751905D01*
X119930000Y-142847143D01*
X119972857Y-142894762D01*
X120058571Y-142942381D01*
X120144286Y-142942381D01*
X120230000Y-142894762D01*
X120272857Y-142847143D01*
X120315714Y-142751905D01*
X120358571Y-142561429D01*
X120358571Y-142323333D01*
X120315714Y-142132857D01*
X120272857Y-142037619D01*
X120230000Y-141990000D01*
X120144286Y-141942381D01*
X134341666Y-126652381D02*
X134675000Y-126176190D01*
X134913095Y-126652381D02*
X134913095Y-125652381D01*
X134532142Y-125652381D01*
X134436904Y-125700000D01*
X134389285Y-125747619D01*
X134341666Y-125842857D01*
X134341666Y-125985714D01*
X134389285Y-126080952D01*
X134436904Y-126128571D01*
X134532142Y-126176190D01*
X134913095Y-126176190D01*
X133389285Y-126652381D02*
X133960714Y-126652381D01*
X133675000Y-126652381D02*
X133675000Y-125652381D01*
X133770238Y-125795238D01*
X133865476Y-125890476D01*
X133960714Y-125938095D01*
X134016666Y-129702381D02*
X134350000Y-129226190D01*
X134588095Y-129702381D02*
X134588095Y-128702381D01*
X134207142Y-128702381D01*
X134111904Y-128750000D01*
X134064285Y-128797619D01*
X134016666Y-128892857D01*
X134016666Y-129035714D01*
X134064285Y-129130952D01*
X134111904Y-129178571D01*
X134207142Y-129226190D01*
X134588095Y-129226190D01*
X133635714Y-128797619D02*
X133588095Y-128750000D01*
X133492857Y-128702381D01*
X133254761Y-128702381D01*
X133159523Y-128750000D01*
X133111904Y-128797619D01*
X133064285Y-128892857D01*
X133064285Y-128988095D01*
X133111904Y-129130952D01*
X133683333Y-129702381D01*
X133064285Y-129702381D01*
X115791666Y-129677381D02*
X116125000Y-129201190D01*
X116363095Y-129677381D02*
X116363095Y-128677381D01*
X115982142Y-128677381D01*
X115886904Y-128725000D01*
X115839285Y-128772619D01*
X115791666Y-128867857D01*
X115791666Y-129010714D01*
X115839285Y-129105952D01*
X115886904Y-129153571D01*
X115982142Y-129201190D01*
X116363095Y-129201190D01*
X115458333Y-128677381D02*
X114839285Y-128677381D01*
X115172619Y-129058333D01*
X115029761Y-129058333D01*
X114934523Y-129105952D01*
X114886904Y-129153571D01*
X114839285Y-129248810D01*
X114839285Y-129486905D01*
X114886904Y-129582143D01*
X114934523Y-129629762D01*
X115029761Y-129677381D01*
X115315476Y-129677381D01*
X115410714Y-129629762D01*
X115458333Y-129582143D01*
X116166666Y-132827381D02*
X116500000Y-132351190D01*
X116738095Y-132827381D02*
X116738095Y-131827381D01*
X116357142Y-131827381D01*
X116261904Y-131875000D01*
X116214285Y-131922619D01*
X116166666Y-132017857D01*
X116166666Y-132160714D01*
X116214285Y-132255952D01*
X116261904Y-132303571D01*
X116357142Y-132351190D01*
X116738095Y-132351190D01*
X115309523Y-132160714D02*
X115309523Y-132827381D01*
X115547619Y-131779762D02*
X115785714Y-132494048D01*
X115166666Y-132494048D01*
X117566666Y-135727381D02*
X117900000Y-135251190D01*
X118138095Y-135727381D02*
X118138095Y-134727381D01*
X117757142Y-134727381D01*
X117661904Y-134775000D01*
X117614285Y-134822619D01*
X117566666Y-134917857D01*
X117566666Y-135060714D01*
X117614285Y-135155952D01*
X117661904Y-135203571D01*
X117757142Y-135251190D01*
X118138095Y-135251190D01*
X116661904Y-134727381D02*
X117138095Y-134727381D01*
X117185714Y-135203571D01*
X117138095Y-135155952D01*
X117042857Y-135108333D01*
X116804761Y-135108333D01*
X116709523Y-135155952D01*
X116661904Y-135203571D01*
X116614285Y-135298810D01*
X116614285Y-135536905D01*
X116661904Y-135632143D01*
X116709523Y-135679762D01*
X116804761Y-135727381D01*
X117042857Y-135727381D01*
X117138095Y-135679762D01*
X117185714Y-135632143D01*
X117591666Y-123702381D02*
X117925000Y-123226190D01*
X118163095Y-123702381D02*
X118163095Y-122702381D01*
X117782142Y-122702381D01*
X117686904Y-122750000D01*
X117639285Y-122797619D01*
X117591666Y-122892857D01*
X117591666Y-123035714D01*
X117639285Y-123130952D01*
X117686904Y-123178571D01*
X117782142Y-123226190D01*
X118163095Y-123226190D01*
X116734523Y-122702381D02*
X116925000Y-122702381D01*
X117020238Y-122750000D01*
X117067857Y-122797619D01*
X117163095Y-122940476D01*
X117210714Y-123130952D01*
X117210714Y-123511905D01*
X117163095Y-123607143D01*
X117115476Y-123654762D01*
X117020238Y-123702381D01*
X116829761Y-123702381D01*
X116734523Y-123654762D01*
X116686904Y-123607143D01*
X116639285Y-123511905D01*
X116639285Y-123273810D01*
X116686904Y-123178571D01*
X116734523Y-123130952D01*
X116829761Y-123083333D01*
X117020238Y-123083333D01*
X117115476Y-123130952D01*
X117163095Y-123178571D01*
X117210714Y-123273810D01*
X116266666Y-126552381D02*
X116600000Y-126076190D01*
X116838095Y-126552381D02*
X116838095Y-125552381D01*
X116457142Y-125552381D01*
X116361904Y-125600000D01*
X116314285Y-125647619D01*
X116266666Y-125742857D01*
X116266666Y-125885714D01*
X116314285Y-125980952D01*
X116361904Y-126028571D01*
X116457142Y-126076190D01*
X116838095Y-126076190D01*
X115933333Y-125552381D02*
X115266666Y-125552381D01*
X115695238Y-126552381D01*
X133041666Y-135552381D02*
X133375000Y-135076190D01*
X133613095Y-135552381D02*
X133613095Y-134552381D01*
X133232142Y-134552381D01*
X133136904Y-134600000D01*
X133089285Y-134647619D01*
X133041666Y-134742857D01*
X133041666Y-134885714D01*
X133089285Y-134980952D01*
X133136904Y-135028571D01*
X133232142Y-135076190D01*
X133613095Y-135076190D01*
X132470238Y-134980952D02*
X132565476Y-134933333D01*
X132613095Y-134885714D01*
X132660714Y-134790476D01*
X132660714Y-134742857D01*
X132613095Y-134647619D01*
X132565476Y-134600000D01*
X132470238Y-134552381D01*
X132279761Y-134552381D01*
X132184523Y-134600000D01*
X132136904Y-134647619D01*
X132089285Y-134742857D01*
X132089285Y-134790476D01*
X132136904Y-134885714D01*
X132184523Y-134933333D01*
X132279761Y-134980952D01*
X132470238Y-134980952D01*
X132565476Y-135028571D01*
X132613095Y-135076190D01*
X132660714Y-135171429D01*
X132660714Y-135361905D01*
X132613095Y-135457143D01*
X132565476Y-135504762D01*
X132470238Y-135552381D01*
X132279761Y-135552381D01*
X132184523Y-135504762D01*
X132136904Y-135457143D01*
X132089285Y-135361905D01*
X132089285Y-135171429D01*
X132136904Y-135076190D01*
X132184523Y-135028571D01*
X132279761Y-134980952D01*
X133116666Y-123852381D02*
X133450000Y-123376190D01*
X133688095Y-123852381D02*
X133688095Y-122852381D01*
X133307142Y-122852381D01*
X133211904Y-122900000D01*
X133164285Y-122947619D01*
X133116666Y-123042857D01*
X133116666Y-123185714D01*
X133164285Y-123280952D01*
X133211904Y-123328571D01*
X133307142Y-123376190D01*
X133688095Y-123376190D01*
X132640476Y-123852381D02*
X132450000Y-123852381D01*
X132354761Y-123804762D01*
X132307142Y-123757143D01*
X132211904Y-123614286D01*
X132164285Y-123423810D01*
X132164285Y-123042857D01*
X132211904Y-122947619D01*
X132259523Y-122900000D01*
X132354761Y-122852381D01*
X132545238Y-122852381D01*
X132640476Y-122900000D01*
X132688095Y-122947619D01*
X132735714Y-123042857D01*
X132735714Y-123280952D01*
X132688095Y-123376190D01*
X132640476Y-123423810D01*
X132545238Y-123471429D01*
X132354761Y-123471429D01*
X132259523Y-123423810D01*
X132211904Y-123376190D01*
X132164285Y-123280952D01*
X134367857Y-132702381D02*
X134701191Y-132226190D01*
X134939286Y-132702381D02*
X134939286Y-131702381D01*
X134558333Y-131702381D01*
X134463095Y-131750000D01*
X134415476Y-131797619D01*
X134367857Y-131892857D01*
X134367857Y-132035714D01*
X134415476Y-132130952D01*
X134463095Y-132178571D01*
X134558333Y-132226190D01*
X134939286Y-132226190D01*
X133415476Y-132702381D02*
X133986905Y-132702381D01*
X133701191Y-132702381D02*
X133701191Y-131702381D01*
X133796429Y-131845238D01*
X133891667Y-131940476D01*
X133986905Y-131988095D01*
X132796429Y-131702381D02*
X132701190Y-131702381D01*
X132605952Y-131750000D01*
X132558333Y-131797619D01*
X132510714Y-131892857D01*
X132463095Y-132083333D01*
X132463095Y-132321429D01*
X132510714Y-132511905D01*
X132558333Y-132607143D01*
X132605952Y-132654762D01*
X132701190Y-132702381D01*
X132796429Y-132702381D01*
X132891667Y-132654762D01*
X132939286Y-132607143D01*
X132986905Y-132511905D01*
X133034524Y-132321429D01*
X133034524Y-132083333D01*
X132986905Y-131892857D01*
X132939286Y-131797619D01*
X132891667Y-131750000D01*
X132796429Y-131702381D01*
X121941666Y-117257143D02*
X121989285Y-117304762D01*
X122132142Y-117352381D01*
X122227380Y-117352381D01*
X122370238Y-117304762D01*
X122465476Y-117209524D01*
X122513095Y-117114286D01*
X122560714Y-116923810D01*
X122560714Y-116780952D01*
X122513095Y-116590476D01*
X122465476Y-116495238D01*
X122370238Y-116400000D01*
X122227380Y-116352381D01*
X122132142Y-116352381D01*
X121989285Y-116400000D01*
X121941666Y-116447619D01*
X120989285Y-117352381D02*
X121560714Y-117352381D01*
X121275000Y-117352381D02*
X121275000Y-116352381D01*
X121370238Y-116495238D01*
X121465476Y-116590476D01*
X121560714Y-116638095D01*
X128291666Y-117307143D02*
X128339285Y-117354762D01*
X128482142Y-117402381D01*
X128577380Y-117402381D01*
X128720238Y-117354762D01*
X128815476Y-117259524D01*
X128863095Y-117164286D01*
X128910714Y-116973810D01*
X128910714Y-116830952D01*
X128863095Y-116640476D01*
X128815476Y-116545238D01*
X128720238Y-116450000D01*
X128577380Y-116402381D01*
X128482142Y-116402381D01*
X128339285Y-116450000D01*
X128291666Y-116497619D01*
X127910714Y-116497619D02*
X127863095Y-116450000D01*
X127767857Y-116402381D01*
X127529761Y-116402381D01*
X127434523Y-116450000D01*
X127386904Y-116497619D01*
X127339285Y-116592857D01*
X127339285Y-116688095D01*
X127386904Y-116830952D01*
X127958333Y-117402381D01*
X127339285Y-117402381D01*
X127916666Y-124207143D02*
X127964285Y-124254762D01*
X128107142Y-124302381D01*
X128202380Y-124302381D01*
X128345238Y-124254762D01*
X128440476Y-124159524D01*
X128488095Y-124064286D01*
X128535714Y-123873810D01*
X128535714Y-123730952D01*
X128488095Y-123540476D01*
X128440476Y-123445238D01*
X128345238Y-123350000D01*
X128202380Y-123302381D01*
X128107142Y-123302381D01*
X127964285Y-123350000D01*
X127916666Y-123397619D01*
X127583333Y-123302381D02*
X126964285Y-123302381D01*
X127297619Y-123683333D01*
X127154761Y-123683333D01*
X127059523Y-123730952D01*
X127011904Y-123778571D01*
X126964285Y-123873810D01*
X126964285Y-124111905D01*
X127011904Y-124207143D01*
X127059523Y-124254762D01*
X127154761Y-124302381D01*
X127440476Y-124302381D01*
X127535714Y-124254762D01*
X127583333Y-124207143D01*
X126491666Y-143182143D02*
X126539285Y-143229762D01*
X126682142Y-143277381D01*
X126777380Y-143277381D01*
X126920238Y-143229762D01*
X127015476Y-143134524D01*
X127063095Y-143039286D01*
X127110714Y-142848810D01*
X127110714Y-142705952D01*
X127063095Y-142515476D01*
X127015476Y-142420238D01*
X126920238Y-142325000D01*
X126777380Y-142277381D01*
X126682142Y-142277381D01*
X126539285Y-142325000D01*
X126491666Y-142372619D01*
X125634523Y-142610714D02*
X125634523Y-143277381D01*
X125872619Y-142229762D02*
X126110714Y-142944048D01*
X125491666Y-142944048D01*
X127241666Y-140332143D02*
X127289285Y-140379762D01*
X127432142Y-140427381D01*
X127527380Y-140427381D01*
X127670238Y-140379762D01*
X127765476Y-140284524D01*
X127813095Y-140189286D01*
X127860714Y-139998810D01*
X127860714Y-139855952D01*
X127813095Y-139665476D01*
X127765476Y-139570238D01*
X127670238Y-139475000D01*
X127527380Y-139427381D01*
X127432142Y-139427381D01*
X127289285Y-139475000D01*
X127241666Y-139522619D01*
X126336904Y-139427381D02*
X126813095Y-139427381D01*
X126860714Y-139903571D01*
X126813095Y-139855952D01*
X126717857Y-139808333D01*
X126479761Y-139808333D01*
X126384523Y-139855952D01*
X126336904Y-139903571D01*
X126289285Y-139998810D01*
X126289285Y-140236905D01*
X126336904Y-140332143D01*
X126384523Y-140379762D01*
X126479761Y-140427381D01*
X126717857Y-140427381D01*
X126813095Y-140379762D01*
X126860714Y-140332143D01*
X113941666Y-140332143D02*
X113989285Y-140379762D01*
X114132142Y-140427381D01*
X114227380Y-140427381D01*
X114370238Y-140379762D01*
X114465476Y-140284524D01*
X114513095Y-140189286D01*
X114560714Y-139998810D01*
X114560714Y-139855952D01*
X114513095Y-139665476D01*
X114465476Y-139570238D01*
X114370238Y-139475000D01*
X114227380Y-139427381D01*
X114132142Y-139427381D01*
X113989285Y-139475000D01*
X113941666Y-139522619D01*
X113084523Y-139427381D02*
X113275000Y-139427381D01*
X113370238Y-139475000D01*
X113417857Y-139522619D01*
X113513095Y-139665476D01*
X113560714Y-139855952D01*
X113560714Y-140236905D01*
X113513095Y-140332143D01*
X113465476Y-140379762D01*
X113370238Y-140427381D01*
X113179761Y-140427381D01*
X113084523Y-140379762D01*
X113036904Y-140332143D01*
X112989285Y-140236905D01*
X112989285Y-139998810D01*
X113036904Y-139903571D01*
X113084523Y-139855952D01*
X113179761Y-139808333D01*
X113370238Y-139808333D01*
X113465476Y-139855952D01*
X113513095Y-139903571D01*
X113560714Y-139998810D01*
X121641666Y-124857143D02*
X121689285Y-124904762D01*
X121832142Y-124952381D01*
X121927380Y-124952381D01*
X122070238Y-124904762D01*
X122165476Y-124809524D01*
X122213095Y-124714286D01*
X122260714Y-124523810D01*
X122260714Y-124380952D01*
X122213095Y-124190476D01*
X122165476Y-124095238D01*
X122070238Y-124000000D01*
X121927380Y-123952381D01*
X121832142Y-123952381D01*
X121689285Y-124000000D01*
X121641666Y-124047619D01*
X121308333Y-123952381D02*
X120641666Y-123952381D01*
X121070238Y-124952381D01*
X125686905Y-116277381D02*
X125686905Y-117086905D01*
X125639286Y-117182143D01*
X125591667Y-117229762D01*
X125496429Y-117277381D01*
X125305952Y-117277381D01*
X125210714Y-117229762D01*
X125163095Y-117182143D01*
X125115476Y-117086905D01*
X125115476Y-116277381D01*
X124115476Y-117277381D02*
X124686905Y-117277381D01*
X124401191Y-117277381D02*
X124401191Y-116277381D01*
X124496429Y-116420238D01*
X124591667Y-116515476D01*
X124686905Y-116563095D01*
X142733333Y-124252381D02*
X142733333Y-124966667D01*
X142780953Y-125109524D01*
X142876191Y-125204762D01*
X143019048Y-125252381D01*
X143114286Y-125252381D01*
X142257143Y-125252381D02*
X142257143Y-124252381D01*
X141876190Y-124252381D01*
X141780952Y-124300000D01*
X141733333Y-124347619D01*
X141685714Y-124442857D01*
X141685714Y-124585714D01*
X141733333Y-124680952D01*
X141780952Y-124728571D01*
X141876190Y-124776190D01*
X142257143Y-124776190D01*
X140733333Y-125252381D02*
X141304762Y-125252381D01*
X141019048Y-125252381D02*
X141019048Y-124252381D01*
X141114286Y-124395238D01*
X141209524Y-124490476D01*
X141304762Y-124538095D01*
X143233333Y-127177381D02*
X143233333Y-127891667D01*
X143280953Y-128034524D01*
X143376191Y-128129762D01*
X143519048Y-128177381D01*
X143614286Y-128177381D01*
X142757143Y-128177381D02*
X142757143Y-127177381D01*
X142376190Y-127177381D01*
X142280952Y-127225000D01*
X142233333Y-127272619D01*
X142185714Y-127367857D01*
X142185714Y-127510714D01*
X142233333Y-127605952D01*
X142280952Y-127653571D01*
X142376190Y-127701190D01*
X142757143Y-127701190D01*
X141804762Y-127272619D02*
X141757143Y-127225000D01*
X141661905Y-127177381D01*
X141423809Y-127177381D01*
X141328571Y-127225000D01*
X141280952Y-127272619D01*
X141233333Y-127367857D01*
X141233333Y-127463095D01*
X141280952Y-127605952D01*
X141852381Y-128177381D01*
X141233333Y-128177381D01*
X108608333Y-127277381D02*
X108608333Y-127991667D01*
X108655953Y-128134524D01*
X108751191Y-128229762D01*
X108894048Y-128277381D01*
X108989286Y-128277381D01*
X108132143Y-128277381D02*
X108132143Y-127277381D01*
X107751190Y-127277381D01*
X107655952Y-127325000D01*
X107608333Y-127372619D01*
X107560714Y-127467857D01*
X107560714Y-127610714D01*
X107608333Y-127705952D01*
X107655952Y-127753571D01*
X107751190Y-127801190D01*
X108132143Y-127801190D01*
X107227381Y-127277381D02*
X106608333Y-127277381D01*
X106941667Y-127658333D01*
X106798809Y-127658333D01*
X106703571Y-127705952D01*
X106655952Y-127753571D01*
X106608333Y-127848810D01*
X106608333Y-128086905D01*
X106655952Y-128182143D01*
X106703571Y-128229762D01*
X106798809Y-128277381D01*
X107084524Y-128277381D01*
X107179762Y-128229762D01*
X107227381Y-128182143D01*
X109008333Y-130202381D02*
X109008333Y-130916667D01*
X109055953Y-131059524D01*
X109151191Y-131154762D01*
X109294048Y-131202381D01*
X109389286Y-131202381D01*
X108532143Y-131202381D02*
X108532143Y-130202381D01*
X108151190Y-130202381D01*
X108055952Y-130250000D01*
X108008333Y-130297619D01*
X107960714Y-130392857D01*
X107960714Y-130535714D01*
X108008333Y-130630952D01*
X108055952Y-130678571D01*
X108151190Y-130726190D01*
X108532143Y-130726190D01*
X107103571Y-130535714D02*
X107103571Y-131202381D01*
X107341667Y-130154762D02*
X107579762Y-130869048D01*
X106960714Y-130869048D01*
X110383333Y-133302381D02*
X110383333Y-134016667D01*
X110430953Y-134159524D01*
X110526191Y-134254762D01*
X110669048Y-134302381D01*
X110764286Y-134302381D01*
X109907143Y-134302381D02*
X109907143Y-133302381D01*
X109526190Y-133302381D01*
X109430952Y-133350000D01*
X109383333Y-133397619D01*
X109335714Y-133492857D01*
X109335714Y-133635714D01*
X109383333Y-133730952D01*
X109430952Y-133778571D01*
X109526190Y-133826190D01*
X109907143Y-133826190D01*
X108430952Y-133302381D02*
X108907143Y-133302381D01*
X108954762Y-133778571D01*
X108907143Y-133730952D01*
X108811905Y-133683333D01*
X108573809Y-133683333D01*
X108478571Y-133730952D01*
X108430952Y-133778571D01*
X108383333Y-133873810D01*
X108383333Y-134111905D01*
X108430952Y-134207143D01*
X108478571Y-134254762D01*
X108573809Y-134302381D01*
X108811905Y-134302381D01*
X108907143Y-134254762D01*
X108954762Y-134207143D01*
X110358333Y-121302381D02*
X110358333Y-122016667D01*
X110405953Y-122159524D01*
X110501191Y-122254762D01*
X110644048Y-122302381D01*
X110739286Y-122302381D01*
X109882143Y-122302381D02*
X109882143Y-121302381D01*
X109501190Y-121302381D01*
X109405952Y-121350000D01*
X109358333Y-121397619D01*
X109310714Y-121492857D01*
X109310714Y-121635714D01*
X109358333Y-121730952D01*
X109405952Y-121778571D01*
X109501190Y-121826190D01*
X109882143Y-121826190D01*
X108453571Y-121302381D02*
X108644048Y-121302381D01*
X108739286Y-121350000D01*
X108786905Y-121397619D01*
X108882143Y-121540476D01*
X108929762Y-121730952D01*
X108929762Y-122111905D01*
X108882143Y-122207143D01*
X108834524Y-122254762D01*
X108739286Y-122302381D01*
X108548809Y-122302381D01*
X108453571Y-122254762D01*
X108405952Y-122207143D01*
X108358333Y-122111905D01*
X108358333Y-121873810D01*
X108405952Y-121778571D01*
X108453571Y-121730952D01*
X108548809Y-121683333D01*
X108739286Y-121683333D01*
X108834524Y-121730952D01*
X108882143Y-121778571D01*
X108929762Y-121873810D01*
X109033333Y-124177381D02*
X109033333Y-124891667D01*
X109080953Y-125034524D01*
X109176191Y-125129762D01*
X109319048Y-125177381D01*
X109414286Y-125177381D01*
X108557143Y-125177381D02*
X108557143Y-124177381D01*
X108176190Y-124177381D01*
X108080952Y-124225000D01*
X108033333Y-124272619D01*
X107985714Y-124367857D01*
X107985714Y-124510714D01*
X108033333Y-124605952D01*
X108080952Y-124653571D01*
X108176190Y-124701190D01*
X108557143Y-124701190D01*
X107652381Y-124177381D02*
X106985714Y-124177381D01*
X107414286Y-125177381D01*
X141508333Y-133152381D02*
X141508333Y-133866667D01*
X141555953Y-134009524D01*
X141651191Y-134104762D01*
X141794048Y-134152381D01*
X141889286Y-134152381D01*
X141032143Y-134152381D02*
X141032143Y-133152381D01*
X140651190Y-133152381D01*
X140555952Y-133200000D01*
X140508333Y-133247619D01*
X140460714Y-133342857D01*
X140460714Y-133485714D01*
X140508333Y-133580952D01*
X140555952Y-133628571D01*
X140651190Y-133676190D01*
X141032143Y-133676190D01*
X139889286Y-133580952D02*
X139984524Y-133533333D01*
X140032143Y-133485714D01*
X140079762Y-133390476D01*
X140079762Y-133342857D01*
X140032143Y-133247619D01*
X139984524Y-133200000D01*
X139889286Y-133152381D01*
X139698809Y-133152381D01*
X139603571Y-133200000D01*
X139555952Y-133247619D01*
X139508333Y-133342857D01*
X139508333Y-133390476D01*
X139555952Y-133485714D01*
X139603571Y-133533333D01*
X139698809Y-133580952D01*
X139889286Y-133580952D01*
X139984524Y-133628571D01*
X140032143Y-133676190D01*
X140079762Y-133771429D01*
X140079762Y-133961905D01*
X140032143Y-134057143D01*
X139984524Y-134104762D01*
X139889286Y-134152381D01*
X139698809Y-134152381D01*
X139603571Y-134104762D01*
X139555952Y-134057143D01*
X139508333Y-133961905D01*
X139508333Y-133771429D01*
X139555952Y-133676190D01*
X139603571Y-133628571D01*
X139698809Y-133580952D01*
X141508333Y-121502381D02*
X141508333Y-122216667D01*
X141555953Y-122359524D01*
X141651191Y-122454762D01*
X141794048Y-122502381D01*
X141889286Y-122502381D01*
X141032143Y-122502381D02*
X141032143Y-121502381D01*
X140651190Y-121502381D01*
X140555952Y-121550000D01*
X140508333Y-121597619D01*
X140460714Y-121692857D01*
X140460714Y-121835714D01*
X140508333Y-121930952D01*
X140555952Y-121978571D01*
X140651190Y-122026190D01*
X141032143Y-122026190D01*
X139984524Y-122502381D02*
X139794048Y-122502381D01*
X139698809Y-122454762D01*
X139651190Y-122407143D01*
X139555952Y-122264286D01*
X139508333Y-122073810D01*
X139508333Y-121692857D01*
X139555952Y-121597619D01*
X139603571Y-121550000D01*
X139698809Y-121502381D01*
X139889286Y-121502381D01*
X139984524Y-121550000D01*
X140032143Y-121597619D01*
X140079762Y-121692857D01*
X140079762Y-121930952D01*
X140032143Y-122026190D01*
X139984524Y-122073810D01*
X139889286Y-122121429D01*
X139698809Y-122121429D01*
X139603571Y-122073810D01*
X139555952Y-122026190D01*
X139508333Y-121930952D01*
X143309523Y-130177381D02*
X143309523Y-130891667D01*
X143357143Y-131034524D01*
X143452381Y-131129762D01*
X143595238Y-131177381D01*
X143690476Y-131177381D01*
X142833333Y-131177381D02*
X142833333Y-130177381D01*
X142452380Y-130177381D01*
X142357142Y-130225000D01*
X142309523Y-130272619D01*
X142261904Y-130367857D01*
X142261904Y-130510714D01*
X142309523Y-130605952D01*
X142357142Y-130653571D01*
X142452380Y-130701190D01*
X142833333Y-130701190D01*
X141309523Y-131177381D02*
X141880952Y-131177381D01*
X141595238Y-131177381D02*
X141595238Y-130177381D01*
X141690476Y-130320238D01*
X141785714Y-130415476D01*
X141880952Y-130463095D01*
X140690476Y-130177381D02*
X140595237Y-130177381D01*
X140499999Y-130225000D01*
X140452380Y-130272619D01*
X140404761Y-130367857D01*
X140357142Y-130558333D01*
X140357142Y-130796429D01*
X140404761Y-130986905D01*
X140452380Y-131082143D01*
X140499999Y-131129762D01*
X140595237Y-131177381D01*
X140690476Y-131177381D01*
X140785714Y-131129762D01*
X140833333Y-131082143D01*
X140880952Y-130986905D01*
X140928571Y-130796429D01*
X140928571Y-130558333D01*
X140880952Y-130367857D01*
X140833333Y-130272619D01*
X140785714Y-130225000D01*
X140690476Y-130177381D01*
X134391666Y-144427381D02*
X134725000Y-143951190D01*
X134963095Y-144427381D02*
X134963095Y-143427381D01*
X134582142Y-143427381D01*
X134486904Y-143475000D01*
X134439285Y-143522619D01*
X134391666Y-143617857D01*
X134391666Y-143760714D01*
X134439285Y-143855952D01*
X134486904Y-143903571D01*
X134582142Y-143951190D01*
X134963095Y-143951190D01*
X133772619Y-143427381D02*
X133677380Y-143427381D01*
X133582142Y-143475000D01*
X133534523Y-143522619D01*
X133486904Y-143617857D01*
X133439285Y-143808333D01*
X133439285Y-144046429D01*
X133486904Y-144236905D01*
X133534523Y-144332143D01*
X133582142Y-144379762D01*
X133677380Y-144427381D01*
X133772619Y-144427381D01*
X133867857Y-144379762D01*
X133915476Y-144332143D01*
X133963095Y-144236905D01*
X134010714Y-144046429D01*
X134010714Y-143808333D01*
X133963095Y-143617857D01*
X133915476Y-143522619D01*
X133867857Y-143475000D01*
X133772619Y-143427381D01*
M02*
