G04 #@! TF.FileFunction,Copper,L2,Bot,Signal*
%FSLAX46Y46*%
G04 Gerber Fmt 4.6, Leading zero omitted, Abs format (unit mm)*
G04 Created by KiCad (PCBNEW 4.0.4-stable) date Thursday, 03 '03e' November '03e' 2016, 09:15:18*
%MOMM*%
%LPD*%
G01*
G04 APERTURE LIST*
%ADD10C,0.100000*%
%ADD11R,1.778000X2.032000*%
%ADD12R,0.400000X1.350000*%
%ADD13R,1.250000X1.000000*%
%ADD14R,1.250000X0.950000*%
%ADD15O,0.800000X1.450000*%
%ADD16R,0.550000X1.600000*%
%ADD17R,1.600000X0.550000*%
%ADD18R,1.727200X2.032000*%
%ADD19O,1.727200X2.032000*%
%ADD20C,2.000000*%
%ADD21R,1.500000X1.300000*%
%ADD22R,1.000000X1.250000*%
%ADD23R,0.650000X1.060000*%
%ADD24R,1.000000X1.000000*%
%ADD25R,1.600000X1.700000*%
%ADD26C,0.600000*%
%ADD27C,0.250000*%
G04 APERTURE END LIST*
D10*
D11*
X122584000Y-139975000D03*
X118266000Y-139975000D03*
D12*
X123725000Y-114775000D03*
X124374100Y-114775000D03*
X125025000Y-114775000D03*
X125674100Y-114775000D03*
X126325000Y-114775000D03*
D13*
X121825000Y-114350000D03*
D14*
X128225000Y-114350000D03*
D15*
X121825000Y-112100000D03*
X128225000Y-112100000D03*
D16*
X127800000Y-134700000D03*
X127000000Y-134700000D03*
X126200000Y-134700000D03*
X125400000Y-134700000D03*
X124600000Y-134700000D03*
X123800000Y-134700000D03*
X123000000Y-134700000D03*
X122200000Y-134700000D03*
D17*
X120750000Y-133250000D03*
X120750000Y-132450000D03*
X120750000Y-131650000D03*
X120750000Y-130850000D03*
X120750000Y-130050000D03*
X120750000Y-129250000D03*
X120750000Y-128450000D03*
X120750000Y-127650000D03*
D16*
X122200000Y-126200000D03*
X123000000Y-126200000D03*
X123800000Y-126200000D03*
X124600000Y-126200000D03*
X125400000Y-126200000D03*
X126200000Y-126200000D03*
X127000000Y-126200000D03*
X127800000Y-126200000D03*
D17*
X129250000Y-127650000D03*
X129250000Y-128450000D03*
X129250000Y-129250000D03*
X129250000Y-130050000D03*
X129250000Y-130850000D03*
X129250000Y-131650000D03*
X129250000Y-132450000D03*
X129250000Y-133250000D03*
D18*
X131350000Y-144900000D03*
D19*
X128810000Y-144900000D03*
X126270000Y-144900000D03*
X123730000Y-144900000D03*
X121190000Y-144900000D03*
X118650000Y-144900000D03*
D20*
X108375000Y-119450000D03*
X106375000Y-122300000D03*
X105025000Y-125650000D03*
X104550000Y-129225000D03*
X105025000Y-132825000D03*
X106375000Y-136150000D03*
X108375000Y-139000000D03*
X110875000Y-141375000D03*
X141950000Y-119675000D03*
X143850000Y-122500000D03*
X134075000Y-114150000D03*
X136875000Y-115525000D03*
X139525000Y-117350000D03*
X145125000Y-125750000D03*
X145575000Y-129250000D03*
X145125000Y-132700000D03*
X143875000Y-135950000D03*
X141925000Y-138775000D03*
X113725000Y-115225000D03*
X116525000Y-113925000D03*
X113675000Y-143175000D03*
X136900000Y-142950000D03*
X139550000Y-141150000D03*
X110875000Y-117100000D03*
D21*
X138850000Y-126225000D03*
X136150000Y-126225000D03*
X139325000Y-129225000D03*
X136625000Y-129225000D03*
X110850000Y-129225000D03*
X113550000Y-129225000D03*
X111300000Y-132350000D03*
X114000000Y-132350000D03*
X112650000Y-135250000D03*
X115350000Y-135250000D03*
X112725000Y-123225000D03*
X115425000Y-123225000D03*
X111350000Y-126075000D03*
X114050000Y-126075000D03*
X137600000Y-135075000D03*
X134900000Y-135075000D03*
X137575000Y-123400000D03*
X134875000Y-123400000D03*
X138850000Y-132275000D03*
X136150000Y-132275000D03*
D13*
X121875000Y-120475000D03*
X121875000Y-118475000D03*
X128050000Y-118475000D03*
X128050000Y-120475000D03*
D22*
X123950000Y-123825000D03*
X125950000Y-123825000D03*
X129950000Y-142225000D03*
X127950000Y-142225000D03*
D13*
X124975000Y-141050000D03*
X124975000Y-139050000D03*
X115850000Y-141050000D03*
X115850000Y-139050000D03*
D22*
X120125000Y-125725000D03*
X118125000Y-125725000D03*
D23*
X125900000Y-120550000D03*
X124950000Y-120550000D03*
X124000000Y-120550000D03*
X124000000Y-118350000D03*
X125900000Y-118350000D03*
D24*
X142700000Y-126175000D03*
X141200000Y-126175000D03*
X143175000Y-129225000D03*
X141675000Y-129225000D03*
X107000000Y-129225000D03*
X108500000Y-129225000D03*
X107450000Y-132375000D03*
X108950000Y-132375000D03*
X108800000Y-135250000D03*
X110300000Y-135250000D03*
X108850000Y-123225000D03*
X110350000Y-123225000D03*
X107500000Y-126075000D03*
X109000000Y-126075000D03*
X141450000Y-135075000D03*
X139950000Y-135075000D03*
X141425000Y-123400000D03*
X139925000Y-123400000D03*
X142700000Y-132275000D03*
X141200000Y-132275000D03*
D25*
X130500000Y-139975000D03*
X134700000Y-139975000D03*
D21*
X131800000Y-142225000D03*
X134500000Y-142225000D03*
D26*
X128125000Y-139975000D03*
X137200000Y-140000000D03*
X125000000Y-122275000D03*
X118750000Y-142325000D03*
X122600000Y-142300000D03*
X126260000Y-136030000D03*
X126925000Y-139125000D03*
X124875000Y-131325000D03*
X124300000Y-133175000D03*
X116975000Y-126050000D03*
X112175000Y-129250000D03*
X115450000Y-122025000D03*
X119425000Y-114050000D03*
X125425000Y-136000000D03*
X126550000Y-140725000D03*
X126850000Y-118425000D03*
X121875000Y-121525000D03*
X120840000Y-139200000D03*
X123000000Y-136000000D03*
X121125000Y-135575000D03*
X116950000Y-137400000D03*
X116675000Y-132225000D03*
X106650000Y-127675000D03*
X125550000Y-128175000D03*
X125550000Y-129225000D03*
X133200000Y-124125000D03*
X127925000Y-128425000D03*
X128150000Y-122500000D03*
X129125000Y-122500000D03*
X131450000Y-129175000D03*
X129250000Y-115925000D03*
X127940000Y-115520000D03*
X131725000Y-130850000D03*
X129075000Y-139925000D03*
X133250000Y-136325000D03*
X133250000Y-134775000D03*
X138700000Y-120700000D03*
X133250000Y-128325000D03*
X127550000Y-143725000D03*
X125025000Y-143700000D03*
X119850000Y-143050000D03*
X123825000Y-130900000D03*
X126225000Y-127500000D03*
X125820000Y-132100000D03*
X122040000Y-138400000D03*
X123650000Y-138420000D03*
X126650000Y-132710000D03*
X122600000Y-133125000D03*
X119675000Y-136050000D03*
X118875000Y-135825000D03*
X122550000Y-132150000D03*
X118470000Y-118430000D03*
X115550000Y-129875000D03*
X117800000Y-128450000D03*
X120460000Y-115850000D03*
X117150000Y-127750000D03*
X109750000Y-131050000D03*
X119775000Y-117650000D03*
X120000000Y-123925000D03*
X116500000Y-133550000D03*
X121200000Y-126625000D03*
X120450000Y-119500000D03*
X120600000Y-117625000D03*
X122500000Y-116100000D03*
X116780000Y-119380000D03*
X132900000Y-120525000D03*
X135125000Y-129225000D03*
X118800000Y-130775000D03*
X114075000Y-140850000D03*
X116750000Y-120690000D03*
X134925000Y-136425000D03*
X128100000Y-124675000D03*
X129175000Y-135625000D03*
D27*
X125950000Y-123825000D02*
X125950000Y-123340000D01*
X125950000Y-123340000D02*
X128050000Y-121240000D01*
X128050000Y-121240000D02*
X128050000Y-120475000D01*
X128050000Y-120475000D02*
X128925000Y-120475000D01*
X128050000Y-116625000D02*
X126325000Y-114900000D01*
X129025000Y-116625000D02*
X128050000Y-116625000D01*
X129650000Y-117250000D02*
X129025000Y-116625000D01*
X129650000Y-119750000D02*
X129650000Y-117250000D01*
X128925000Y-120475000D02*
X129650000Y-119750000D01*
X126325000Y-114900000D02*
X126325000Y-114775000D01*
X128125000Y-139975000D02*
X128125000Y-139925000D01*
X134700000Y-138875000D02*
X134700000Y-139975000D01*
X134350002Y-138525002D02*
X134700000Y-138875000D01*
X129524998Y-138525002D02*
X134350002Y-138525002D01*
X128125000Y-139925000D02*
X129524998Y-138525002D01*
X126925000Y-139125000D02*
X126975000Y-139125000D01*
X127825000Y-139975000D02*
X128125000Y-139975000D01*
X126975000Y-139125000D02*
X127825000Y-139975000D01*
X137200000Y-140000000D02*
X137175000Y-139975000D01*
X137175000Y-139975000D02*
X134700000Y-139975000D01*
X124700000Y-119500000D02*
X126425000Y-119500000D01*
X127400000Y-120475000D02*
X128050000Y-120475000D01*
X126425000Y-119500000D02*
X127400000Y-120475000D01*
X121875000Y-118475000D02*
X122300000Y-118475000D01*
X122300000Y-118475000D02*
X123325000Y-119500000D01*
X123325000Y-119500000D02*
X124700000Y-119500000D01*
X124700000Y-119500000D02*
X124950000Y-119750000D01*
X124950000Y-119750000D02*
X124950000Y-120550000D01*
X125000000Y-122275000D02*
X125050000Y-122275000D01*
X125950000Y-122775000D02*
X125950000Y-123825000D01*
X125050000Y-122275000D02*
X125950000Y-122775000D01*
X125400000Y-126200000D02*
X125400000Y-125325000D01*
X125400000Y-125325000D02*
X125950000Y-124775000D01*
X125950000Y-124775000D02*
X125950000Y-123825000D01*
X118125000Y-125725000D02*
X117300000Y-125725000D01*
X117300000Y-125725000D02*
X116975000Y-126050000D01*
X122600000Y-142300000D02*
X123725000Y-142300000D01*
X123725000Y-142300000D02*
X124975000Y-141050000D01*
X117125000Y-142325000D02*
X115850000Y-141050000D01*
X122575000Y-142325000D02*
X118750000Y-142325000D01*
X118750000Y-142325000D02*
X117125000Y-142325000D01*
X122600000Y-142300000D02*
X122575000Y-142325000D01*
X126200000Y-134700000D02*
X126160000Y-135930000D01*
X126160000Y-135930000D02*
X126260000Y-136030000D01*
X126925000Y-139125000D02*
X125000000Y-141050000D01*
X125000000Y-141050000D02*
X124975000Y-141050000D01*
X124600000Y-134700000D02*
X124600000Y-133475000D01*
X124600000Y-133475000D02*
X124300000Y-133175000D01*
X125400000Y-126200000D02*
X125400000Y-127325000D01*
X125400000Y-127325000D02*
X124875000Y-127850000D01*
X124875000Y-127850000D02*
X124875000Y-131325000D01*
X126200000Y-133450000D02*
X126200000Y-134700000D01*
X124875000Y-131325000D02*
X124875000Y-132125000D01*
X124875000Y-132125000D02*
X126200000Y-133450000D01*
X112200000Y-129225000D02*
X113550000Y-129225000D01*
X112175000Y-129250000D02*
X112200000Y-129225000D01*
X115425000Y-122050000D02*
X115425000Y-123225000D01*
X115450000Y-122025000D02*
X115425000Y-122050000D01*
X144700000Y-132275000D02*
X145125000Y-132700000D01*
X142700000Y-132275000D02*
X144700000Y-132275000D01*
X127000000Y-136150000D02*
X127180000Y-136330000D01*
X142700000Y-133275000D02*
X142700000Y-132275000D01*
X127000000Y-134700000D02*
X127000000Y-136150000D01*
X127180000Y-136330000D02*
X130595000Y-136330000D01*
X130595000Y-136330000D02*
X133375000Y-133550000D01*
X133375000Y-133550000D02*
X142425000Y-133550000D01*
X142425000Y-133550000D02*
X142700000Y-133275000D01*
X125200000Y-116925000D02*
X122075000Y-116925000D01*
X125900000Y-117625000D02*
X125200000Y-116925000D01*
X125900000Y-118350000D02*
X125900000Y-117625000D01*
X122075000Y-115300000D02*
X122775000Y-115300000D01*
X121725000Y-115650000D02*
X122075000Y-115300000D01*
X121725000Y-116575000D02*
X121725000Y-115650000D01*
X122075000Y-116925000D02*
X121725000Y-116575000D01*
X122950000Y-113450000D02*
X120025000Y-113450000D01*
X120025000Y-113450000D02*
X119425000Y-114050000D01*
X123050000Y-113550000D02*
X122950000Y-113450000D01*
X123050000Y-115025000D02*
X123050000Y-113550000D01*
X122775000Y-115300000D02*
X123050000Y-115025000D01*
X126550000Y-140725000D02*
X128600000Y-140725000D01*
X134500000Y-143150000D02*
X134500000Y-142225000D01*
X134175000Y-143475000D02*
X134500000Y-143150000D01*
X129525000Y-143475000D02*
X134175000Y-143475000D01*
X128950000Y-142900000D02*
X129525000Y-143475000D01*
X128950000Y-141075000D02*
X128950000Y-142900000D01*
X128600000Y-140725000D02*
X128950000Y-141075000D01*
X126270000Y-144900000D02*
X126270000Y-143055000D01*
X125400000Y-135975000D02*
X125425000Y-136000000D01*
X125400000Y-135975000D02*
X125400000Y-134700000D01*
X126550000Y-142775000D02*
X126550000Y-140725000D01*
X126270000Y-143055000D02*
X126550000Y-142775000D01*
X121875000Y-123700000D02*
X122550000Y-124375000D01*
X126850000Y-118425000D02*
X126825000Y-118400000D01*
X126825000Y-118400000D02*
X126825000Y-118475000D01*
X121875000Y-121525000D02*
X121875000Y-123700000D01*
X120125000Y-125725000D02*
X120125000Y-124850000D01*
X120125000Y-124850000D02*
X120600000Y-124375000D01*
X120600000Y-124375000D02*
X122550000Y-124375000D01*
X122550000Y-124375000D02*
X123000000Y-124825000D01*
X123000000Y-126200000D02*
X123000000Y-124825000D01*
X125900000Y-118350000D02*
X126700000Y-118350000D01*
X126825000Y-118475000D02*
X128050000Y-118475000D01*
X123800000Y-134700000D02*
X123800000Y-133650000D01*
X123325000Y-131300000D02*
X123000000Y-130975000D01*
X123325000Y-133175000D02*
X123325000Y-131300000D01*
X123800000Y-133650000D02*
X123325000Y-133175000D01*
X124550000Y-132500000D02*
X124525000Y-132500000D01*
X124525000Y-132500000D02*
X123000000Y-130975000D01*
X124550000Y-132500000D02*
X125400000Y-133350000D01*
X125400000Y-133350000D02*
X125400000Y-134700000D01*
X123000000Y-126200000D02*
X123000000Y-130975000D01*
X126700000Y-118350000D02*
X126825000Y-118475000D01*
X122584000Y-139975000D02*
X121185000Y-139975000D01*
X120840000Y-139630000D02*
X120840000Y-139200000D01*
X121185000Y-139975000D02*
X120840000Y-139630000D01*
X122584000Y-139975000D02*
X121825000Y-139975000D01*
X122975000Y-135975000D02*
X123000000Y-134700000D01*
X123000000Y-136000000D02*
X122975000Y-135975000D01*
X124975000Y-139050000D02*
X124425000Y-139050000D01*
X124425000Y-139050000D02*
X123500000Y-139975000D01*
X123500000Y-139975000D02*
X122584000Y-139975000D01*
X122200000Y-134700000D02*
X122000000Y-134700000D01*
X122000000Y-134700000D02*
X121125000Y-135575000D01*
X116950000Y-137400000D02*
X115850000Y-138500000D01*
X115850000Y-138500000D02*
X115850000Y-139050000D01*
X115850000Y-139050000D02*
X116600000Y-139050000D01*
X116600000Y-139050000D02*
X117525000Y-139975000D01*
X117525000Y-139975000D02*
X118266000Y-139975000D01*
X120750000Y-136175000D02*
X120755000Y-136175000D01*
X132210000Y-136820000D02*
X132465000Y-137075000D01*
X121400000Y-136820000D02*
X132210000Y-136820000D01*
X120755000Y-136175000D02*
X121400000Y-136820000D01*
X120750000Y-133250000D02*
X119775000Y-133250000D01*
X119350000Y-134775000D02*
X120750000Y-136175000D01*
X119350000Y-133675000D02*
X119350000Y-134775000D01*
X119775000Y-133250000D02*
X119350000Y-133675000D01*
X141450000Y-135075000D02*
X141450000Y-135825000D01*
X141450000Y-135825000D02*
X140200000Y-137075000D01*
X140200000Y-137075000D02*
X132465000Y-137075000D01*
X143000000Y-135075000D02*
X143875000Y-135950000D01*
X141450000Y-135075000D02*
X143000000Y-135075000D01*
X118425000Y-132225000D02*
X116675000Y-132225000D01*
X119800000Y-130850000D02*
X118425000Y-132225000D01*
X120750000Y-130850000D02*
X119800000Y-130850000D01*
X108850000Y-123225000D02*
X110350000Y-123225000D01*
X120750000Y-130050000D02*
X117075000Y-130050000D01*
X106875000Y-127900000D02*
X106650000Y-127675000D01*
X114925000Y-127900000D02*
X106875000Y-127900000D01*
X117075000Y-130050000D02*
X114925000Y-127900000D01*
X107300000Y-123225000D02*
X106375000Y-122300000D01*
X108850000Y-123225000D02*
X107300000Y-123225000D01*
X107500000Y-126075000D02*
X109000000Y-126075000D01*
X105450000Y-126075000D02*
X105025000Y-125650000D01*
X107500000Y-126075000D02*
X105450000Y-126075000D01*
X117000000Y-129250000D02*
X115050000Y-127300000D01*
X115050000Y-127300000D02*
X107625000Y-127300000D01*
X107625000Y-127300000D02*
X107500000Y-127175000D01*
X120750000Y-129250000D02*
X117000000Y-129250000D01*
X107500000Y-127175000D02*
X107500000Y-126075000D01*
X123950000Y-123825000D02*
X123950000Y-124150000D01*
X123950000Y-124150000D02*
X124600000Y-124800000D01*
X124600000Y-124800000D02*
X124600000Y-126200000D01*
X125550000Y-128175000D02*
X126500000Y-128175000D01*
X126500000Y-128175000D02*
X127000000Y-127675000D01*
X127000000Y-127675000D02*
X127000000Y-126200000D01*
X125550000Y-129225000D02*
X126850000Y-129225000D01*
X126850000Y-129225000D02*
X127225000Y-128850000D01*
X127225000Y-128850000D02*
X127225000Y-128125000D01*
X127225000Y-128125000D02*
X127800000Y-127550000D01*
X127800000Y-127550000D02*
X127800000Y-126200000D01*
X129250000Y-127650000D02*
X129250000Y-125025000D01*
X130150000Y-124125000D02*
X133200000Y-124125000D01*
X129250000Y-125025000D02*
X130150000Y-124125000D01*
X141425000Y-123400000D02*
X141425000Y-124350000D01*
X132000000Y-128450000D02*
X129250000Y-128450000D01*
X132925000Y-127525000D02*
X132000000Y-128450000D01*
X137250000Y-127525000D02*
X132925000Y-127525000D01*
X137475000Y-127300000D02*
X137250000Y-127525000D01*
X137475000Y-125475000D02*
X137475000Y-127300000D01*
X138000000Y-124950000D02*
X137475000Y-125475000D01*
X140825000Y-124950000D02*
X138000000Y-124950000D01*
X141425000Y-124350000D02*
X140825000Y-124950000D01*
X142950000Y-123400000D02*
X143850000Y-122500000D01*
X141425000Y-123400000D02*
X142950000Y-123400000D01*
X134075000Y-114150000D02*
X132025000Y-114150000D01*
X128075000Y-129250000D02*
X129250000Y-129250000D01*
X127925000Y-129100000D02*
X128075000Y-129250000D01*
X127925000Y-128425000D02*
X127925000Y-129100000D01*
X128150000Y-122325000D02*
X128150000Y-122500000D01*
X130200000Y-120275000D02*
X128150000Y-122325000D01*
X130200000Y-115975000D02*
X130200000Y-120275000D01*
X132025000Y-114150000D02*
X130200000Y-115975000D01*
X136875000Y-115525000D02*
X136875000Y-118145000D01*
X131320000Y-119160000D02*
X130775000Y-119705000D01*
X135860000Y-119160000D02*
X131320000Y-119160000D01*
X136875000Y-118145000D02*
X135860000Y-119160000D01*
X136875000Y-115525000D02*
X136500000Y-115525000D01*
X130775000Y-119705000D02*
X130775000Y-120850000D01*
X131450000Y-129175000D02*
X131450000Y-129775000D01*
X131450000Y-129775000D02*
X131175000Y-130050000D01*
X131175000Y-130050000D02*
X129250000Y-130050000D01*
X130775000Y-120850000D02*
X129125000Y-122500000D01*
X128855000Y-115530000D02*
X129250000Y-115925000D01*
X127950000Y-115530000D02*
X128855000Y-115530000D01*
X127940000Y-115520000D02*
X127950000Y-115530000D01*
X130500000Y-139975000D02*
X129125000Y-139975000D01*
X129075000Y-139925000D02*
X129125000Y-139975000D01*
X133250000Y-134775000D02*
X133250000Y-136325000D01*
X129950000Y-142225000D02*
X131800000Y-142225000D01*
X129950000Y-142225000D02*
X129950000Y-141575000D01*
X130500000Y-141025000D02*
X130500000Y-139975000D01*
X129950000Y-141575000D02*
X130500000Y-141025000D01*
X131750000Y-130850000D02*
X132400000Y-130200000D01*
X138700000Y-120700000D02*
X139525000Y-119875000D01*
X139525000Y-119875000D02*
X139525000Y-117350000D01*
X131725000Y-130850000D02*
X131750000Y-130850000D01*
X132400000Y-130200000D02*
X132400000Y-129175000D01*
X132400000Y-129175000D02*
X133250000Y-128325000D01*
X129250000Y-130850000D02*
X131725000Y-130850000D01*
X127550000Y-143725000D02*
X127575000Y-143725000D01*
X124325000Y-143000000D02*
X125025000Y-143700000D01*
X119900000Y-143000000D02*
X124325000Y-143000000D01*
X119850000Y-143050000D02*
X119900000Y-143000000D01*
X127950000Y-143350000D02*
X127950000Y-142225000D01*
X127575000Y-143725000D02*
X127950000Y-143350000D01*
X123800000Y-126200000D02*
X123800000Y-130875000D01*
X123800000Y-130875000D02*
X123825000Y-130900000D01*
X126225000Y-127500000D02*
X126200000Y-127475000D01*
X126200000Y-127475000D02*
X126200000Y-126200000D01*
X129250000Y-131650000D02*
X126270000Y-131650000D01*
X126270000Y-131650000D02*
X125820000Y-132100000D01*
X129250000Y-132450000D02*
X126910000Y-132450000D01*
X123630000Y-138400000D02*
X122040000Y-138400000D01*
X123650000Y-138420000D02*
X123630000Y-138400000D01*
X126910000Y-132450000D02*
X126650000Y-132710000D01*
X143175000Y-129225000D02*
X145550000Y-129225000D01*
X143175000Y-130375000D02*
X143175000Y-129225000D01*
X142800000Y-130750000D02*
X143175000Y-130375000D01*
X134550000Y-130750000D02*
X142800000Y-130750000D01*
X130600000Y-134700000D02*
X134550000Y-130750000D01*
X145550000Y-129225000D02*
X145575000Y-129250000D01*
X127800000Y-134700000D02*
X130600000Y-134700000D01*
X119675000Y-136050000D02*
X119675000Y-136335000D01*
X132010002Y-137270002D02*
X132315000Y-137575000D01*
X120610002Y-137270002D02*
X132010002Y-137270002D01*
X119675000Y-136335000D02*
X120610002Y-137270002D01*
X120750000Y-132450000D02*
X121925000Y-132450000D01*
X122600000Y-133125000D02*
X121925000Y-132450000D01*
X140250000Y-137575000D02*
X132315000Y-137575000D01*
X140250000Y-137575000D02*
X141450000Y-138775000D01*
X141925000Y-138775000D02*
X141450000Y-138775000D01*
X118875000Y-135825000D02*
X118875000Y-136205000D01*
X131730000Y-137750000D02*
X132055000Y-138075000D01*
X120420000Y-137750000D02*
X131730000Y-137750000D01*
X118875000Y-136205000D02*
X120420000Y-137750000D01*
X139550000Y-141150000D02*
X139550000Y-139525000D01*
X139550000Y-139525000D02*
X138100000Y-138075000D01*
X138100000Y-138075000D02*
X132055000Y-138075000D01*
X122375000Y-131650000D02*
X120750000Y-131650000D01*
X122550000Y-132150000D02*
X122550000Y-131825000D01*
X122550000Y-131825000D02*
X122375000Y-131650000D01*
X107000000Y-129225000D02*
X108500000Y-129225000D01*
X118000000Y-124000000D02*
X118000000Y-118900000D01*
X116100000Y-125900000D02*
X116100000Y-127675000D01*
X118000000Y-124000000D02*
X116100000Y-125900000D01*
X116875000Y-128450000D02*
X117800000Y-128450000D01*
X116100000Y-127675000D02*
X116875000Y-128450000D01*
X118000000Y-118900000D02*
X118470000Y-118430000D01*
X107000000Y-129225000D02*
X107000000Y-130300000D01*
X107100000Y-130400000D02*
X115025000Y-130400000D01*
X115025000Y-130400000D02*
X115550000Y-129875000D01*
X107000000Y-130300000D02*
X107100000Y-130400000D01*
X117800000Y-128450000D02*
X120750000Y-128450000D01*
X107000000Y-129225000D02*
X104550000Y-129225000D01*
X119120000Y-117810000D02*
X119120000Y-117050000D01*
X120320000Y-115850000D02*
X120460000Y-115850000D01*
X119120000Y-117050000D02*
X120320000Y-115850000D01*
X107450000Y-132375000D02*
X108950000Y-132375000D01*
X119120000Y-123895000D02*
X119125000Y-123900000D01*
X119120000Y-117810000D02*
X119120000Y-123895000D01*
X119575000Y-127650000D02*
X119125000Y-127200000D01*
X119125000Y-123900000D02*
X119125000Y-127200000D01*
X119575000Y-127650000D02*
X117250000Y-127650000D01*
X117250000Y-127650000D02*
X117150000Y-127750000D01*
X120750000Y-127650000D02*
X119575000Y-127650000D01*
X107450000Y-131625000D02*
X107450000Y-132375000D01*
X109750000Y-131050000D02*
X108025000Y-131050000D01*
X108025000Y-131050000D02*
X107450000Y-131625000D01*
X105475000Y-132375000D02*
X105025000Y-132825000D01*
X107450000Y-132375000D02*
X105475000Y-132375000D01*
X119800000Y-117675000D02*
X119800000Y-123725000D01*
X119800000Y-123725000D02*
X120000000Y-123925000D01*
X119800000Y-117675000D02*
X119775000Y-117650000D01*
X119775000Y-117650000D02*
X119800000Y-117675000D01*
X108800000Y-135250000D02*
X110300000Y-135250000D01*
X108800000Y-135250000D02*
X108800000Y-134700000D01*
X109950000Y-133550000D02*
X116500000Y-133550000D01*
X108800000Y-134700000D02*
X109950000Y-133550000D01*
X121625000Y-126200000D02*
X122200000Y-126200000D01*
X121200000Y-126625000D02*
X121625000Y-126200000D01*
X122175000Y-126225000D02*
X122200000Y-126200000D01*
X108800000Y-135250000D02*
X107275000Y-135250000D01*
X107275000Y-135250000D02*
X106375000Y-136150000D01*
X144700000Y-126175000D02*
X145125000Y-125750000D01*
X142700000Y-126175000D02*
X144700000Y-126175000D01*
X131250000Y-133250000D02*
X133175000Y-131325000D01*
X133175000Y-131325000D02*
X133175000Y-129475000D01*
X133175000Y-129475000D02*
X134600000Y-128050000D01*
X134600000Y-128050000D02*
X141725000Y-128050000D01*
X141725000Y-128050000D02*
X142700000Y-127075000D01*
X142700000Y-127075000D02*
X142700000Y-126175000D01*
X129250000Y-133250000D02*
X131250000Y-133250000D01*
X110875000Y-117100000D02*
X110875000Y-117865000D01*
X110875000Y-117865000D02*
X112390000Y-119380000D01*
X112390000Y-119380000D02*
X116780000Y-119380000D01*
X123725000Y-114775000D02*
X123725000Y-115750000D01*
X120450000Y-117775000D02*
X120450000Y-119500000D01*
X120600000Y-117625000D02*
X120450000Y-117775000D01*
X123375000Y-116100000D02*
X122500000Y-116100000D01*
X123725000Y-115750000D02*
X123375000Y-116100000D01*
X121875000Y-120475000D02*
X121875000Y-120150000D01*
X121875000Y-120150000D02*
X121225000Y-119500000D01*
X121225000Y-119500000D02*
X120450000Y-119500000D01*
X124000000Y-120550000D02*
X124000000Y-121425000D01*
X125900000Y-121375000D02*
X125900000Y-120550000D01*
X125675000Y-121600000D02*
X125900000Y-121375000D01*
X124175000Y-121600000D02*
X125675000Y-121600000D01*
X124000000Y-121425000D02*
X124175000Y-121600000D01*
X121875000Y-120475000D02*
X123925000Y-120475000D01*
X123925000Y-120475000D02*
X124000000Y-120550000D01*
X136150000Y-126225000D02*
X136150000Y-122325000D01*
X134350000Y-120525000D02*
X132900000Y-120525000D01*
X136150000Y-122325000D02*
X134350000Y-120525000D01*
X135125000Y-129225000D02*
X136625000Y-129225000D01*
X115500000Y-132350000D02*
X114000000Y-132350000D01*
X117100000Y-130750000D02*
X115500000Y-132350000D01*
X118775000Y-130750000D02*
X117100000Y-130750000D01*
X118800000Y-130775000D02*
X118775000Y-130750000D01*
X115225000Y-136150000D02*
X115225000Y-135375000D01*
X114075000Y-137300000D02*
X115225000Y-136150000D01*
X114075000Y-140850000D02*
X114075000Y-137300000D01*
X115225000Y-135375000D02*
X115350000Y-135250000D01*
X115250000Y-126075000D02*
X116750000Y-124575000D01*
X116750000Y-124575000D02*
X116750000Y-120690000D01*
X114050000Y-126075000D02*
X115250000Y-126075000D01*
X134900000Y-136400000D02*
X134900000Y-135075000D01*
X134925000Y-136425000D02*
X134900000Y-136400000D01*
X134875000Y-123400000D02*
X129375000Y-123400000D01*
X129375000Y-123400000D02*
X128100000Y-124675000D01*
X136150000Y-132275000D02*
X133825000Y-132275000D01*
X130475000Y-135625000D02*
X129175000Y-135625000D01*
X133825000Y-132275000D02*
X130475000Y-135625000D01*
X141200000Y-126175000D02*
X142700000Y-126175000D01*
X141150000Y-126225000D02*
X141200000Y-126175000D01*
X138850000Y-126225000D02*
X141150000Y-126225000D01*
X141675000Y-129225000D02*
X143175000Y-129225000D01*
X139325000Y-129225000D02*
X141675000Y-129225000D01*
X108500000Y-129225000D02*
X110850000Y-129225000D01*
X111275000Y-132375000D02*
X111300000Y-132350000D01*
X108950000Y-132375000D02*
X111275000Y-132375000D01*
X110300000Y-135250000D02*
X112650000Y-135250000D01*
X110350000Y-123225000D02*
X112725000Y-123225000D01*
X109000000Y-126075000D02*
X111350000Y-126075000D01*
X139950000Y-135075000D02*
X141450000Y-135075000D01*
X137600000Y-135075000D02*
X139950000Y-135075000D01*
X139925000Y-123400000D02*
X141425000Y-123400000D01*
X137575000Y-123400000D02*
X139925000Y-123400000D01*
X141200000Y-132275000D02*
X142700000Y-132275000D01*
X138850000Y-132275000D02*
X141200000Y-132275000D01*
M02*
